<mxfile host="Electron" modified="2025-08-05T03:39:49.950Z" agent="Mozilla/5.0 (Macintosh; Intel Mac OS X 10_15_7) AppleWebKit/537.36 (KHTML, like Gecko) draw.io/23.1.5 Chrome/120.0.6099.109 Electron/28.1.0 Safari/537.36" etag="mbf_WNG-LJmI8A-2Ws3m" version="23.1.5" type="device">
  <diagram name="第 1 页" id="L31HDswCqaVExqFeWjfk">
    <mxGraphModel dx="281" dy="214" grid="0" gridSize="10" guides="1" tooltips="1" connect="1" arrows="1" fold="1" page="0" pageScale="1" pageWidth="1169" pageHeight="827" math="1" shadow="0">
      <root>
        <mxCell id="0" />
        <mxCell id="1" parent="0" />
        <mxCell id="83BTbZMbLLvdx4bF1iAf-13" value="" style="group;movable=1;resizable=1;rotatable=1;deletable=1;editable=1;locked=0;connectable=1;" vertex="1" connectable="0" parent="1">
          <mxGeometry x="351" y="147" width="140" height="140" as="geometry" />
        </mxCell>
        <mxCell id="83BTbZMbLLvdx4bF1iAf-1" value="" style="group;movable=1;resizable=1;rotatable=1;deletable=1;editable=1;locked=0;connectable=1;" vertex="1" connectable="0" parent="83BTbZMbLLvdx4bF1iAf-13">
          <mxGeometry x="40" y="30" width="60" height="80" as="geometry" />
        </mxCell>
        <mxCell id="83BTbZMbLLvdx4bF1iAf-2" value="&lt;font style=&quot;font-size: 18px;&quot;&gt;$$\Delta$$&lt;/font&gt;" style="rounded=0;whiteSpace=wrap;html=1;movable=1;resizable=1;rotatable=1;deletable=1;editable=1;locked=0;connectable=1;" vertex="1" parent="83BTbZMbLLvdx4bF1iAf-1">
          <mxGeometry width="60" height="40" as="geometry" />
        </mxCell>
        <mxCell id="83BTbZMbLLvdx4bF1iAf-3" value="&lt;font style=&quot;font-size: 13px;&quot;&gt;$$K&lt;br&gt;$$&lt;/font&gt;" style="rounded=0;whiteSpace=wrap;html=1;movable=1;resizable=1;rotatable=1;deletable=1;editable=1;locked=0;connectable=1;" vertex="1" parent="83BTbZMbLLvdx4bF1iAf-1">
          <mxGeometry y="40" width="20" height="40" as="geometry" />
        </mxCell>
        <mxCell id="83BTbZMbLLvdx4bF1iAf-4" value="&lt;font style=&quot;font-size: 10px;&quot;&gt;$$\int&lt;br&gt;$$&lt;/font&gt;" style="rounded=0;whiteSpace=wrap;html=1;movable=1;resizable=1;rotatable=1;deletable=1;editable=1;locked=0;connectable=1;" vertex="1" parent="83BTbZMbLLvdx4bF1iAf-1">
          <mxGeometry x="20" y="40" width="20" height="40" as="geometry" />
        </mxCell>
        <mxCell id="83BTbZMbLLvdx4bF1iAf-5" value="&lt;font style=&quot;font-size: 11px;&quot;&gt;$$\frac{d}{dt}$$&lt;/font&gt;" style="rounded=0;whiteSpace=wrap;html=1;movable=1;resizable=1;rotatable=1;deletable=1;editable=1;locked=0;connectable=1;" vertex="1" parent="83BTbZMbLLvdx4bF1iAf-1">
          <mxGeometry x="40" y="40" width="20" height="40" as="geometry" />
        </mxCell>
        <mxCell id="83BTbZMbLLvdx4bF1iAf-6" value="" style="endArrow=none;html=1;rounded=0;movable=1;resizable=1;rotatable=1;deletable=1;editable=1;locked=0;connectable=1;" edge="1" parent="83BTbZMbLLvdx4bF1iAf-13">
          <mxGeometry width="50" height="50" relative="1" as="geometry">
            <mxPoint x="50" y="30" as="sourcePoint" />
            <mxPoint x="50" y="10" as="targetPoint" />
          </mxGeometry>
        </mxCell>
        <mxCell id="83BTbZMbLLvdx4bF1iAf-8" value="" style="endArrow=none;html=1;rounded=0;movable=1;resizable=1;rotatable=1;deletable=1;editable=1;locked=0;connectable=1;" edge="1" parent="83BTbZMbLLvdx4bF1iAf-13">
          <mxGeometry width="50" height="50" relative="1" as="geometry">
            <mxPoint x="90" y="30" as="sourcePoint" />
            <mxPoint x="90" y="10" as="targetPoint" />
          </mxGeometry>
        </mxCell>
        <mxCell id="83BTbZMbLLvdx4bF1iAf-9" value="" style="endArrow=none;html=1;rounded=0;movable=1;resizable=1;rotatable=1;deletable=1;editable=1;locked=0;connectable=1;" edge="1" parent="83BTbZMbLLvdx4bF1iAf-13">
          <mxGeometry width="50" height="50" relative="1" as="geometry">
            <mxPoint x="69.5" y="130" as="sourcePoint" />
            <mxPoint x="69.5" y="110" as="targetPoint" />
          </mxGeometry>
        </mxCell>
        <mxCell id="83BTbZMbLLvdx4bF1iAf-10" value="$$OP$$" style="text;html=1;align=center;verticalAlign=middle;resizable=1;points=[];autosize=1;strokeColor=none;fillColor=none;movable=1;rotatable=1;deletable=1;editable=1;locked=0;connectable=1;" vertex="1" parent="83BTbZMbLLvdx4bF1iAf-13">
          <mxGeometry x="55" y="110" width="70" height="30" as="geometry" />
        </mxCell>
        <mxCell id="83BTbZMbLLvdx4bF1iAf-11" value="$$SP$$" style="text;html=1;align=center;verticalAlign=middle;resizable=1;points=[];autosize=1;strokeColor=none;fillColor=none;movable=1;rotatable=1;deletable=1;editable=1;locked=0;connectable=1;" vertex="1" parent="83BTbZMbLLvdx4bF1iAf-13">
          <mxGeometry width="70" height="30" as="geometry" />
        </mxCell>
        <mxCell id="83BTbZMbLLvdx4bF1iAf-12" value="$$PV$$" style="text;html=1;align=center;verticalAlign=middle;resizable=1;points=[];autosize=1;strokeColor=none;fillColor=none;movable=1;rotatable=1;deletable=1;editable=1;locked=0;connectable=1;" vertex="1" parent="83BTbZMbLLvdx4bF1iAf-13">
          <mxGeometry x="70" width="70" height="30" as="geometry" />
        </mxCell>
      </root>
    </mxGraphModel>
  </diagram>
</mxfile>
